<svg viewBox="0 0 791 872" fill="none" xmlns="http://www.w3.org/2000/svg">
<path d="M245.258 869.632C230.623 865.566 217.806 857.582 207.417 846.059C201.74 839.763 19.5158 535.432 5.66845 509.122C1.75482 501.686 0.0846966 491.919 0.00210184 475.984C-0.127771 450.921 5.74762 435.874 21.3599 421.29C29.3377 413.837 220.692 300.288 252.015 284.42C267.324 276.664 275.592 267.275 275.574 257.663C275.568 254.304 269.464 233.977 262.01 212.492C247.26 169.979 245.662 157.564 253.732 148.194C259.042 142.029 479.704 11.7612 497.788 4.11563C512.767 -2.21709 541.564 -1.09093 557.628 6.45563C580.159 17.0401 568.557 -0.823212 737.003 282.646C792.005 375.207 794.776 382.154 788.274 411.191C783.283 433.481 769.019 448.714 734.199 468.937C718.202 478.227 703.757 487.444 702.099 489.419C700.441 491.393 660.273 515.641 612.835 543.303C565.398 570.965 524.141 596.298 521.152 599.598C512.812 608.809 514.626 627.553 526.927 659.276C545.793 707.926 545.415 722.03 524.965 732.447C517.946 736.023 465.407 766.356 408.212 799.855C351.016 833.354 300.133 862.848 295.138 865.398C281.799 872.207 260.908 873.981 245.258 869.632ZM371.594 727.183C427.377 694.685 478.358 664.518 484.886 660.145C501.132 649.259 503.735 638.206 495.424 615.409C464.426 530.388 463.824 536.185 506.26 511.186C522.791 501.448 536.995 492.437 537.824 491.161C538.652 489.885 576.951 466.808 622.932 439.879L706.533 390.916L699.023 378.473C694.892 371.629 653.88 302.691 607.886 225.277C561.891 147.863 523.196 84.4884 521.895 84.4443C519.005 84.3418 303.187 210.267 296.277 216.084C286.663 224.176 287.209 236.585 298.536 267.427C317.439 318.902 318.814 324.642 314.651 334.687C312.268 340.436 304.913 347.131 294.02 353.467C284.71 358.883 233.474 388.822 180.163 419.998L83.2337 476.682L89.736 489.48C103.269 516.114 265.151 786.201 267.602 786.234C269.014 786.257 315.81 759.68 371.594 727.183Z" fill="#BCA689"/>
</svg>
